<mxfile host="app.diagrams.net" modified="2022-04-30T17:00:47.958Z" agent="5.0 (X11; Linux x86_64) AppleWebKit/537.36 (KHTML, like Gecko) Chrome/101.0.4951.41 Safari/537.36" etag="nBVmUDvQXdtUB8W7vqfd" version="17.4.6" type="github">
  <diagram id="tGGqGhT_Sd-joOJbHCEm" name="Page-1">
    <mxGraphModel dx="1038" dy="553" grid="1" gridSize="10" guides="1" tooltips="1" connect="1" arrows="1" fold="1" page="1" pageScale="1" pageWidth="827" pageHeight="1169" math="0" shadow="0">
      <root>
        <mxCell id="0" />
        <mxCell id="1" parent="0" />
        <mxCell id="yTCI9lnX1p78hpDMVuBI-8" value="" style="rounded=0;whiteSpace=wrap;html=1;fontSize=14;fillColor=#cce5ff;strokeColor=none;" vertex="1" parent="1">
          <mxGeometry x="40" y="170" width="750" height="350" as="geometry" />
        </mxCell>
        <mxCell id="yTCI9lnX1p78hpDMVuBI-1" value="&lt;font style=&quot;font-size: 50px&quot; color=&quot;#ffffff&quot;&gt;B&amp;amp;B G3&lt;/font&gt;" style="rounded=0;whiteSpace=wrap;html=1;fillColor=#E0E0E0;strokeColor=none;fontColor=#333333;" vertex="1" parent="1">
          <mxGeometry x="40" y="40" width="750" height="80" as="geometry" />
        </mxCell>
        <mxCell id="yTCI9lnX1p78hpDMVuBI-2" value="&lt;font style=&quot;font-size: 14px&quot; color=&quot;#ffffff&quot;&gt;Home&lt;/font&gt;" style="rounded=0;whiteSpace=wrap;html=1;fillColor=#D1D1D1;strokeColor=none;" vertex="1" parent="1">
          <mxGeometry x="39" y="130" width="41" height="30" as="geometry" />
        </mxCell>
        <mxCell id="yTCI9lnX1p78hpDMVuBI-3" value="&lt;font style=&quot;font-size: 14px&quot; color=&quot;#ffffff&quot;&gt;Camere&lt;/font&gt;" style="rounded=0;whiteSpace=wrap;html=1;fillColor=#E0E0E0;strokeColor=none;" vertex="1" parent="1">
          <mxGeometry x="90" y="130" width="80" height="30" as="geometry" />
        </mxCell>
        <mxCell id="yTCI9lnX1p78hpDMVuBI-4" value="&lt;font style=&quot;font-size: 14px&quot; color=&quot;#ffffff&quot;&gt;Colazione&lt;/font&gt;" style="rounded=0;whiteSpace=wrap;html=1;fillColor=#E0E0E0;strokeColor=none;" vertex="1" parent="1">
          <mxGeometry x="180" y="130" width="80" height="30" as="geometry" />
        </mxCell>
        <mxCell id="yTCI9lnX1p78hpDMVuBI-5" value="&lt;font style=&quot;font-size: 14px&quot; color=&quot;#ffffff&quot;&gt;Servizi&lt;/font&gt;" style="rounded=0;whiteSpace=wrap;html=1;fillColor=#E0E0E0;strokeColor=none;" vertex="1" parent="1">
          <mxGeometry x="270" y="130" width="80" height="30" as="geometry" />
        </mxCell>
        <mxCell id="yTCI9lnX1p78hpDMVuBI-6" value="&lt;font style=&quot;font-size: 14px&quot; color=&quot;#ffffff&quot;&gt;Info&lt;/font&gt;" style="rounded=0;whiteSpace=wrap;html=1;fillColor=#E0E0E0;strokeColor=none;" vertex="1" parent="1">
          <mxGeometry x="360" y="130" width="80" height="30" as="geometry" />
        </mxCell>
        <mxCell id="yTCI9lnX1p78hpDMVuBI-7" value="&lt;font style=&quot;font-size: 14px&quot; color=&quot;#ffffff&quot;&gt;Contatti&lt;/font&gt;" style="rounded=0;whiteSpace=wrap;html=1;fillColor=#E0E0E0;strokeColor=none;" vertex="1" parent="1">
          <mxGeometry x="450" y="130" width="80" height="30" as="geometry" />
        </mxCell>
        <mxCell id="yTCI9lnX1p78hpDMVuBI-16" value="" style="group" vertex="1" connectable="0" parent="1">
          <mxGeometry x="38" y="560" width="751" height="240" as="geometry" />
        </mxCell>
        <mxCell id="yTCI9lnX1p78hpDMVuBI-9" value="" style="rounded=0;whiteSpace=wrap;html=1;fontSize=14;fillColor=#E0E0E0;fontColor=#333333;strokeColor=none;" vertex="1" parent="yTCI9lnX1p78hpDMVuBI-16">
          <mxGeometry width="751" height="240" as="geometry" />
        </mxCell>
        <mxCell id="yTCI9lnX1p78hpDMVuBI-10" value="" style="triangle;whiteSpace=wrap;html=1;fontSize=14;fontColor=#FFFFFF;fillColor=#FFFFFF;rotation=-90;strokeColor=none;" vertex="1" parent="yTCI9lnX1p78hpDMVuBI-16">
          <mxGeometry x="41" y="-40" width="240" height="320" as="geometry" />
        </mxCell>
        <mxCell id="yTCI9lnX1p78hpDMVuBI-11" value="" style="triangle;whiteSpace=wrap;html=1;fontSize=14;fontColor=#FFFFFF;fillColor=#FFFFFF;rotation=-90;strokeColor=none;" vertex="1" parent="yTCI9lnX1p78hpDMVuBI-16">
          <mxGeometry x="199.75" y="70" width="142.5" height="190" as="geometry" />
        </mxCell>
        <mxCell id="yTCI9lnX1p78hpDMVuBI-12" value="" style="triangle;whiteSpace=wrap;html=1;fontSize=14;fontColor=#FFFFFF;fillColor=#FFFFFF;rotation=-90;strokeColor=none;" vertex="1" parent="yTCI9lnX1p78hpDMVuBI-16">
          <mxGeometry x="256" y="-40" width="240" height="320" as="geometry" />
        </mxCell>
        <mxCell id="yTCI9lnX1p78hpDMVuBI-13" value="" style="triangle;whiteSpace=wrap;html=1;fontSize=14;fontColor=#FFFFFF;fillColor=#FFFFFF;rotation=-90;strokeColor=none;" vertex="1" parent="yTCI9lnX1p78hpDMVuBI-16">
          <mxGeometry x="370" y="-5" width="210" height="280" as="geometry" />
        </mxCell>
      </root>
    </mxGraphModel>
  </diagram>
</mxfile>
